# xmcd CD database file
#
# Track frame offsets:
#	150
#	10521
#	24159
#	42468
#	55464
#	66184
#	83488
#	100631
#	116366
#	129917
#
# Disc length: 1911 seconds
#
# Revision: 0
# Processed by: cddbd v1.5.1PL0 Copyright (c) Steve Scherf et al.
# Submitted via: CDex 1.51
#
DISCID=6c07750a
DTITLE=Sérgio Bap - Sentimental Blues
DYEAR=1900
DGENRE=Blues
TTITLE0=Over Ture
TTITLE1=Marly?!
TTITLE2=Single Love
TTITLE3=Just Smile
TTITLE4=Guitar Race
TTITLE5=Meriti River
TTITLE6=Meriti Salls
TTITLE7=Rollin' blues
TTITLE8=Sliding
TTITLE9=M L King Tribute
EXTD=
EXTT0=
EXTT1=
EXTT2=
EXTT3=
EXTT4=
EXTT5=
EXTT6=
EXTT7=
EXTT8=
EXTT9=
PLAYORDER=
